# xmcd
# Track frame offsets:
# 150
# 18496
# 34434
# 51482
# 71028
# 91406
# 109610
# 126383
# 145071
# 166615
#
# Disc length: 2460 seconds
# Revision: 0
# Processed by: cddbd v1.4PL0 Copyright (c) Steve Scherf et al.
# Submitted via: VisiTrax 2.9.5.181 - For more info visit www.synapsa.com
#
DISCID=8c099a0a
DTITLE=Quinn Golden - Bottoms Up
DYEAR=2003
DGENRE=Blues
TTITLE0=It Started At The Party
TTITLE1=Can You Pop That Trunk?
TTITLE2=It's Saturday
TTITLE3=Party For Two
TTITLE4=Hell At The House
TTITLE5=Bottoms Up
TTITLE6=I'm Just A Lucky Guy
TTITLE7=Chill Out
TTITLE8=Crazy
TTITLE9=Party On The Weekend
EXTD=
EXTT0=
EXTT1=
EXTT2=
EXTT3=
EXTT4=
EXTT5=
EXTT6=
EXTT7=
EXTT8=
EXTT9=
PLAYORDER=
